<?xml version="1.0" encoding="UTF-8" standalone="no"?>
<!-- Creator: CorelDRAW X7 -->

<svg
   xml:space="preserve"
   width="210mm"
   height="297mm"
   version="1.1"
   style="shape-rendering:geometricPrecision; text-rendering:geometricPrecision; image-rendering:optimizeQuality; fill-rule:evenodd; clip-rule:evenodd"
   viewBox="0 0 21000 29700"
   id="svg24"
   xmlns="http://www.w3.org/2000/svg"
   xmlns:svg="http://www.w3.org/2000/svg">&#10; <defs
   id="defs4">&#10;  <style
   type="text/css"
   id="style2">&#10;   <![CDATA[
    .str1 {stroke:#FECC00;stroke-width:7.62}
    .str0 {stroke:#FECC00;stroke-width:7.62}
    .fil3 {fill:none}
    .fil2 {fill:#FECC00}
    .fil1 {fill:#FECC00;fill-rule:nonzero}
    .fil0 {fill:#FECC00;fill-rule:nonzero}
   ]]>&#10;  </style>&#10; &#10;   &#10;  </defs>&#10; <g
   id="Слой_x0020_1">&#10;  <metadata
   id="CorelCorpID_0Corel-Layer" />&#10;  &#10;  &#10;  &#10;  &#10;  &#10;  <g
   id="g1"><path
     class="fil0"
     d="m 4928,6614 -40,5 v 0 l -5,-34 -5,-32 -5,-30 -6,-30 -6,-28 -7,-27 -7,-26 -7,-24 -8,-24 -8,-22 -8,-21 -8,-20 -8,-19 -8,-18 -8,-17 -8,-15 -8,-15 -8,-14 -8,-12 -7,-12 -7,-10 -6,-9 -6,-9 -6,-7 -5,-7 -5,-6 -4,-4 -3,-4 -3,-3 -1,-2 -2,-1 v 0 l 28,-29 1,1 2,1 2,3 3,3 4,4 4,6 5,6 6,7 6,8 7,9 7,10 7,12 8,12 8,13 8,14 8,16 9,16 8,18 9,18 8,20 9,21 8,22 8,23 8,25 8,25 7,27 7,28 7,29 6,30 5,32 5,33 z m -20,965 -40,-4 v -2 -5 l 1,-8 1,-11 2,-14 1,-17 2,-20 2,-21 2,-24 2,-27 2,-28 2,-30 2,-32 3,-33 2,-34 2,-36 1,-37 2,-38 2,-38 1,-40 1,-39 1,-40 v -40 -40 -40 l -1,-40 -1,-39 -1,-39 -2,-37 -3,-37 -3,-36 -3,-34 40,-5 3,35 3,37 3,37 2,39 2,39 1,39 v 40 l 1,41 -1,40 v 40 l -1,41 -1,40 -1,39 -2,39 -1,38 -2,37 -2,36 -2,35 -2,33 -3,32 -2,30 -2,28 -2,27 -2,24 -2,22 -2,19 -1,17 -2,15 -1,11 -1,8 v 5 z m 358,-39 -40,6 -7,-45 -6,-46 -8,-46 -7,-47 -8,-48 -8,-48 -9,-49 -9,-50 -10,-49 -11,-50 -11,-49 -11,-50 -13,-50 -13,-50 -14,-49 -15,-49 -15,-49 -16,-48 -18,-48 -18,-47 -19,-46 -20,-45 -22,-45 -22,-43 -24,-43 -24,-41 -26,-40 -27,-39 -28,-37 -30,-36 -31,-34 -32,-33 28,-29 34,34 32,36 30,37 30,38 27,40 27,42 25,42 24,44 23,44 22,46 21,46 19,47 19,48 18,48 16,49 16,50 15,50 14,50 13,50 13,50 11,51 12,50 10,50 10,50 9,49 9,50 9,48 8,48 7,48 7,46 7,46 z m -161,-1056 29,-27 18,21 17,25 18,27 17,31 18,34 18,36 17,39 18,40 17,42 18,44 17,45 17,46 17,46 16,46 16,47 15,46 15,46 15,45 13,43 13,43 13,40 11,39 11,36 10,34 9,31 8,27 6,24 6,21 5,16 3,12 2,8 1,2 -39,11 -1,-3 -2,-7 -3,-12 -5,-16 -5,-21 -7,-24 -8,-27 -9,-31 -10,-34 -10,-36 -12,-38 -12,-41 -13,-42 -14,-43 -14,-45 -15,-45 -15,-46 -16,-47 -16,-46 -17,-46 -17,-45 -17,-44 -17,-43 -17,-42 -17,-40 -18,-38 -17,-35 -17,-32 -17,-30 -16,-26 -16,-23 z m -407,-366 27,-31 45,41 45,39 44,40 44,39 43,39 42,39 42,39 41,40 41,39 40,39 39,40 38,40 38,40 38,41 36,41 36,42 35,42 35,43 33,44 33,45 33,46 31,46 31,48 30,48 29,50 28,51 28,52 26,54 26,55 25,56 24,58 24,60 -38,14 -23,-59 -24,-57 -25,-56 -25,-54 -26,-52 -27,-52 -28,-50 -29,-49 -29,-48 -31,-47 -31,-46 -31,-45 -33,-44 -33,-43 -34,-42 -35,-42 -35,-42 -36,-40 -37,-41 -38,-40 -38,-39 -39,-39 -39,-39 -41,-39 -41,-39 -41,-39 -42,-39 -43,-39 -44,-39 -44,-40 -45,-39 z m 1034,598 24,-32 16,14 16,17 16,19 15,23 16,24 15,27 16,29 16,30 15,32 16,34 15,34 15,35 15,36 15,36 14,37 14,36 13,36 13,35 12,35 12,33 11,32 11,31 9,29 9,27 8,24 8,22 6,20 5,16 4,13 3,10 2,6 1,2 -39,12 -1,-2 -1,-6 -3,-10 -4,-13 -6,-16 -6,-19 -7,-22 -8,-25 -9,-27 -9,-28 -11,-31 -11,-32 -12,-33 -12,-34 -13,-35 -13,-36 -14,-36 -14,-36 -14,-36 -15,-35 -15,-35 -15,-34 -15,-33 -15,-31 -16,-30 -15,-27 -15,-26 -14,-23 -15,-21 -13,-17 -14,-14 z m 86,20 -26,30 v 0 l -39,-33 -40,-32 -41,-32 -42,-32 -43,-31 -43,-30 -44,-30 -44,-30 -44,-28 -44,-28 -44,-27 -44,-26 -43,-26 -42,-24 -41,-24 -41,-22 -39,-22 -38,-20 -36,-20 -35,-18 -33,-17 -30,-15 -29,-15 -26,-13 -24,-11 -21,-11 -18,-8 -16,-8 -12,-5 -9,-5 -5,-2 -2,-1 17,-37 1,1 6,3 9,4 12,6 16,7 18,9 22,10 24,12 26,13 29,15 31,16 33,17 35,18 36,19 38,21 40,21 40,23 42,24 43,24 43,26 44,26 44,28 44,28 45,29 45,29 44,30 44,31 43,32 42,32 42,32 41,33 z m 610,759 -33,22 -21,-32 -21,-31 -20,-30 -20,-30 -19,-29 -19,-28 -19,-28 -19,-27 -18,-26 -19,-26 -18,-26 -18,-24 -18,-25 -17,-23 -18,-24 -18,-22 -18,-23 -17,-22 -18,-21 -18,-21 -18,-21 -18,-21 -18,-20 -19,-20 -18,-19 -19,-20 -19,-19 -20,-19 -20,-18 -20,-19 -20,-19 -21,-18 26,-30 21,18 21,19 21,19 20,19 20,20 19,19 20,20 19,20 18,20 19,21 18,20 19,22 18,21 18,22 18,22 18,23 18,23 18,23 18,24 18,25 18,25 18,25 19,26 18,27 19,27 19,28 19,29 20,29 20,30 20,30 20,31 z m 1020,-13 -37,14 -32,-77 -35,-74 -39,-72 -42,-69 -46,-67 -48,-64 -52,-61 -54,-60 -57,-57 -60,-54 -62,-53 -64,-50 -66,-48 -68,-47 -70,-44 -71,-42 -73,-40 -74,-38 -76,-37 -76,-34 -77,-33 -77,-31 -79,-30 -78,-28 -79,-26 -79,-25 -78,-23 -79,-22 -78,-20 -77,-19 -76,-18 -76,-17 8,-39 76,16 78,18 77,20 79,20 79,22 79,24 80,25 79,26 79,28 79,30 79,32 77,33 78,35 76,37 75,39 74,40 72,43 71,45 69,47 67,49 66,51 63,53 60,56 59,59 55,60 53,63 50,66 46,68 44,71 40,73 36,77 z m -296,37 -36,17 -24,-50 -26,-49 -26,-49 -28,-48 -28,-46 -30,-46 -31,-45 -32,-44 -34,-43 -34,-42 -35,-41 -37,-39 -37,-39 -39,-37 -39,-37 -41,-35 -41,-33 -43,-33 -43,-31 -45,-29 -45,-29 -47,-27 -47,-25 -48,-24 -49,-23 -50,-21 -51,-19 -52,-18 -53,-16 -53,-14 -54,-13 -56,-11 8,-40 56,11 56,14 54,14 54,17 53,18 53,20 51,22 50,23 49,24 49,26 47,28 47,29 45,30 45,32 43,33 43,35 41,35 41,37 39,38 39,40 37,40 36,42 35,43 34,44 33,44 31,46 31,47 29,48 28,48 27,50 26,50 z m -1715,-1295 -17,37 v 0 l -23,-10 -22,-10 -23,-9 -23,-9 -24,-9 -23,-8 -23,-8 -23,-7 -23,-7 -23,-7 -22,-6 -22,-6 -22,-5 -21,-5 -20,-5 -20,-5 -19,-4 -19,-4 -17,-3 -17,-3 -16,-3 -15,-3 -13,-2 -13,-2 -11,-2 -10,-2 -8,-1 -8,-1 -5,-1 h -4 l -3,-1 h -1 l 5,-40 1,1 h 3 4 l 6,1 7,1 9,2 10,1 12,2 12,2 14,2 15,3 16,3 17,3 18,4 19,4 20,4 20,5 21,4 21,6 22,5 23,6 22,7 24,6 23,7 24,8 23,8 24,8 24,9 24,9 23,10 24,10 z m 421,235 -21,34 v 0 l -17,-10 -16,-11 -15,-9 -14,-9 -13,-8 -12,-8 -12,-8 -11,-7 -11,-7 -10,-6 -10,-6 -10,-6 -9,-6 -10,-6 -9,-5 -10,-6 -9,-5 -10,-6 -10,-5 -11,-6 -11,-6 -12,-6 -12,-6 -13,-7 -14,-7 -14,-7 -16,-8 -17,-8 -18,-8 -19,-9 -21,-10 -21,-10 17,-37 22,11 20,9 19,9 18,9 17,8 16,8 15,7 14,7 13,7 13,6 12,7 11,6 11,5 10,6 11,6 9,5 10,6 10,6 9,6 10,6 10,6 10,6 10,6 11,7 11,7 12,8 13,8 13,8 14,9 15,9 16,10 z m 439,349 -28,29 v 0 l -13,-13 -13,-13 -12,-12 -12,-12 -12,-12 -13,-12 -12,-11 -12,-11 -12,-11 -12,-11 -12,-11 -12,-11 -13,-10 -12,-10 -13,-11 -12,-10 -13,-10 -13,-10 -13,-10 -13,-10 -14,-10 -14,-10 -14,-10 -14,-10 -15,-10 -15,-10 -15,-10 -16,-10 -16,-11 -16,-10 -17,-11 -17,-11 21,-34 18,11 17,11 16,10 17,11 15,10 16,11 15,10 15,10 14,10 15,11 14,10 14,10 13,10 14,10 13,11 13,10 13,10 13,11 12,10 13,11 12,11 13,11 12,11 12,11 13,11 12,12 13,12 12,12 12,12 13,13 13,12 z m 444,686 -38,13 -7,-22 -9,-22 -8,-22 -10,-23 -10,-22 -10,-23 -11,-22 -12,-23 -11,-22 -13,-23 -13,-22 -13,-23 -13,-22 -14,-22 -14,-22 -15,-22 -14,-22 -15,-22 -16,-21 -15,-21 -16,-21 -15,-21 -16,-20 -16,-20 -16,-20 -16,-19 -16,-19 -17,-18 -16,-18 -16,-18 -16,-17 -15,-16 28,-29 17,17 16,18 16,18 17,18 16,19 16,19 17,20 16,20 16,20 16,21 16,20 16,22 16,21 15,22 16,22 15,22 14,23 15,22 14,23 14,23 13,23 13,23 13,23 12,23 12,23 11,23 11,23 10,23 10,23 9,23 8,23 z m 1052,-11 -35,21 -19,-33 -19,-34 -19,-33 -20,-33 -19,-34 -20,-33 -20,-34 -20,-34 -20,-33 -20,-34 -21,-33 -21,-34 -21,-33 -22,-33 -22,-32 -22,-33 -22,-32 -23,-32 -24,-31 -23,-31 -25,-31 -24,-30 -25,-30 -26,-29 -26,-28 -26,-28 -27,-28 -28,-26 -28,-26 -29,-26 -29,-24 -30,-24 25,-32 31,25 30,25 29,26 29,26 28,28 28,28 27,28 26,29 26,30 26,30 25,31 24,31 24,32 24,32 23,32 23,32 23,33 22,33 21,33 22,34 21,33 21,34 20,34 21,34 20,33 20,34 20,34 19,34 19,33 20,33 19,34 z m -1470,-1225 -10,39 v 0 l -44,-12 -44,-11 -44,-11 -46,-11 -45,-10 -46,-10 -47,-9 -46,-10 -46,-8 -45,-9 -45,-8 -45,-7 -44,-7 -43,-7 -41,-7 -41,-6 -39,-6 -38,-5 -36,-5 -35,-4 -32,-5 -31,-4 -28,-3 -26,-3 -23,-3 -21,-2 -18,-2 -14,-2 -12,-1 -9,-1 -5,-1 h -2 l 4,-40 h 2 l 5,1 9,1 12,1 15,2 18,2 21,2 23,3 26,3 28,3 31,4 33,5 34,4 37,5 37,6 40,5 41,6 42,7 43,7 44,7 45,8 45,8 46,8 46,9 46,9 47,10 46,10 46,10 46,11 45,11 45,11 z m 787,250 -14,37 v 0 l -14,-5 -13,-5 -14,-5 -14,-6 -15,-5 -15,-6 -16,-5 -16,-6 -17,-6 -18,-6 -18,-7 -19,-6 -19,-7 -21,-7 -21,-7 -22,-7 -24,-7 -24,-8 -25,-8 -26,-8 -27,-9 -29,-8 -30,-9 -30,-10 -33,-9 -33,-10 -35,-10 -36,-11 -38,-11 -39,-11 -40,-11 -42,-12 10,-39 43,12 40,12 39,11 38,11 36,10 35,10 34,10 32,10 31,9 30,9 28,9 28,8 26,9 25,7 25,8 23,8 22,7 22,7 21,7 19,7 19,6 19,7 17,6 17,6 17,6 16,6 15,5 15,6 14,5 14,6 14,5 z m 1114,907 -32,24 -28,-36 -28,-35 -28,-36 -29,-35 -29,-34 -29,-34 -30,-34 -30,-33 -30,-33 -31,-32 -31,-32 -32,-31 -32,-30 -32,-31 -33,-29 -33,-29 -34,-28 -35,-28 -35,-27 -35,-26 -36,-26 -36,-25 -38,-24 -37,-24 -39,-23 -39,-22 -39,-22 -40,-20 -41,-20 -42,-19 -42,-18 -43,-18 14,-37 44,18 43,18 43,20 42,20 41,21 40,22 40,22 39,24 38,24 38,24 37,26 37,26 36,27 35,28 35,28 35,28 34,30 33,30 33,30 32,31 32,32 32,32 31,33 31,33 30,33 30,34 30,35 29,35 29,35 29,36 28,36 z m -461,-1024 -15,38 v 0 l -25,-10 -26,-9 -28,-10 -28,-9 -28,-8 -29,-9 -30,-9 -30,-8 -30,-8 -30,-7 -30,-8 -30,-7 -30,-7 -29,-6 -29,-6 -27,-6 -28,-6 -26,-6 -25,-5 -24,-4 -23,-5 -22,-4 -20,-3 -18,-4 -17,-3 -15,-2 -13,-2 -10,-2 -9,-2 -6,-1 h -4 l -1,-1 6,-39 h 1 l 4,1 7,1 8,1 11,2 13,2 15,3 17,3 18,3 21,4 21,4 23,4 25,5 25,5 26,5 28,6 28,6 29,7 29,6 30,7 30,7 31,8 30,7 30,8 31,9 30,8 29,9 30,9 28,9 28,10 27,9 z m 989,578 -23,33 -31,-22 -30,-21 -30,-21 -30,-21 -29,-21 -30,-20 -29,-21 -29,-20 -29,-20 -30,-19 -29,-19 -29,-20 -29,-18 -29,-19 -30,-18 -29,-18 -30,-18 -30,-18 -30,-17 -30,-17 -30,-17 -31,-17 -31,-16 -31,-16 -32,-16 -32,-16 -33,-15 -32,-15 -34,-15 -34,-14 -34,-14 -35,-14 15,-38 35,14 35,15 34,14 34,15 33,15 33,16 33,16 32,16 32,16 31,17 31,16 31,17 30,18 31,17 30,18 30,18 29,18 30,19 30,19 29,19 29,19 30,19 29,20 29,20 30,20 29,20 30,21 30,21 29,21 30,21 31,21 z m -307,285 30,-27 -3,-1 -26,28 -7,-8 -13,-14 -17,-20 -22,-24 -28,-29 -31,-32 -37,-37 -40,-39 -45,-43 -50,-45 -53,-47 -57,-49 -60,-50 -64,-51 -68,-52 -71,-52 -74,-51 -77,-52 -80,-50 -83,-49 -86,-47 -88,-45 -90,-43 -93,-39 -94,-37 -97,-33 -99,-29 -100,-24 -101,-20 -103,-15 4,-40 105,15 104,20 102,25 100,30 98,33 96,37 94,41 92,43 89,46 87,47 83,50 81,51 78,51 75,53 72,52 68,52 65,52 61,51 58,49 53,47 50,46 45,43 42,40 36,36 32,33 28,29 23,25 17,20 13,14 8,10 -22,34 z m -1320,-1149 3,-40 144,14 136,15 129,17 122,19 115,20 108,21 101,23 96,23 89,25 83,25 78,25 72,26 66,27 62,26 57,26 51,26 47,26 43,25 39,25 34,23 31,23 27,22 24,20 20,19 18,17 14,16 12,14 9,12 7,9 5,7 3,5 1,2 -35,19 h -1 l -2,-4 -4,-6 -6,-8 -8,-10 -11,-13 -13,-15 -17,-16 -19,-18 -22,-19 -26,-21 -30,-22 -33,-23 -38,-23 -41,-25 -46,-25 -51,-26 -55,-25 -61,-26 -65,-26 -71,-26 -77,-25 -82,-25 -88,-24 -95,-23 -101,-22 -107,-22 -114,-20 -121,-18 -128,-17 -135,-15 z m 1941,251 -41,-1 -3,-11 -10,-14 -20,-16 -29,-16 -38,-16 -45,-15 -53,-15 -58,-14 -64,-12 -69,-12 -73,-12 -76,-10 -80,-10 -82,-9 -85,-8 -85,-8 -86,-7 -86,-7 -86,-5 -85,-6 -83,-4 -80,-4 -78,-4 -74,-3 -70,-3 -66,-2 -61,-2 -54,-1 -48,-1 -41,-1 h -34 -25 v -40 h 25 34 l 42,1 48,1 55,1 60,2 66,2 70,3 75,3 78,4 81,4 83,4 85,5 86,6 86,7 86,7 86,7 85,9 82,9 81,10 77,10 74,12 70,12 65,13 59,14 54,15 48,16 41,17 34,19 27,21 18,25 z m -15,-388 18,36 -27,11 -32,10 -39,8 -44,9 -50,7 -54,7 -58,7 -63,6 -65,5 -69,5 -71,5 -72,4 -74,4 -75,3 -76,3 -75,3 -74,2 -73,2 -72,2 -69,2 -67,1 -64,1 -59,1 -56,1 h -51 l -46,1 h -40 -34 -28 -20 -12 -5 v -40 h 5 12 20 27 34 l 41,-1 h 45 l 51,-1 h 56 l 60,-1 63,-1 67,-1 69,-2 72,-2 73,-2 74,-2 75,-3 75,-3 75,-3 73,-4 73,-4 70,-5 68,-5 66,-5 61,-6 58,-7 54,-7 48,-7 43,-8 37,-8 29,-9 z m -405,-81 14,38 v 0 l -48,15 -54,15 -60,14 -65,13 -70,12 -75,12 -79,11 -81,11 -85,9 -87,9 -89,9 -90,8 -91,7 -91,7 -90,7 -90,5 -89,6 -86,5 -85,4 -81,4 -78,4 -73,3 -70,3 -64,2 -59,2 -52,2 -46,1 -39,1 -31,1 -23,1 h -14 -5 l -1,-40 h 5 14 l 23,-1 31,-1 39,-1 46,-1 52,-2 59,-2 64,-3 69,-2 74,-4 77,-3 81,-4 84,-5 87,-4 88,-6 90,-6 90,-6 91,-7 91,-7 90,-8 88,-9 87,-9 84,-9 81,-11 78,-11 74,-11 69,-12 65,-13 58,-14 53,-14 z m 358,-165 27,30 h -1 v 1 l -2,1 -2,1 -2,2 -3,2 -3,3 -4,3 -5,3 -5,3 -6,4 -7,4 -8,5 -8,5 -9,5 -10,5 -11,6 -11,6 -13,6 -13,7 -15,6 -15,8 -17,7 -18,8 -18,8 -20,8 -21,9 -22,9 -24,9 -25,9 -26,10 -27,10 -14,-38 27,-10 26,-9 25,-10 23,-9 22,-9 20,-8 20,-8 18,-8 18,-8 16,-7 15,-7 14,-7 13,-6 13,-6 11,-6 10,-6 10,-5 8,-5 8,-4 7,-4 6,-4 6,-3 5,-4 4,-2 3,-3 3,-2 3,-2 1,-1 2,-1 1,-1 z m -1263,225 13,38 v 0 l -59,19 -63,17 -68,15 -70,14 -74,12 -76,12 -78,9 -81,9 -81,8 -83,7 -83,5 -84,5 -83,4 -83,3 -82,2 -81,2 -78,1 -77,1 h -74 -71 l -68,-1 -64,-1 -60,-1 -55,-1 -50,-1 -45,-2 -39,-1 -33,-1 -26,-1 -19,-1 h -12 l -4,-1 2,-40 h 4 l 12,1 19,1 26,1 33,1 38,1 45,2 50,1 55,1 60,1 64,1 67,1 h 71 74 l 76,-1 79,-1 80,-2 81,-2 83,-3 83,-4 83,-5 83,-6 82,-6 81,-8 80,-8 78,-10 75,-11 73,-13 69,-13 66,-15 62,-17 z m 1128,-520 21,35 h -2 l -5,3 -7,5 -11,6 -13,7 -16,10 -18,10 -22,12 -23,13 -26,14 -28,16 -30,16 -33,17 -34,18 -37,19 -38,19 -40,20 -42,21 -43,21 -45,21 -46,22 -47,22 -49,22 -50,22 -51,22 -52,22 -53,21 -53,21 -55,21 -55,21 -56,20 -56,19 -13,-38 56,-19 55,-20 55,-20 54,-21 53,-21 53,-22 51,-21 51,-22 50,-22 48,-22 47,-22 46,-21 45,-21 43,-21 41,-21 40,-20 38,-19 36,-19 34,-18 33,-17 30,-16 28,-15 25,-14 24,-13 21,-12 18,-10 16,-9 13,-8 11,-6 7,-4 5,-3 z m -2052,632 5,40 v 0 l -28,3 -33,3 -39,2 -45,2 -49,1 -53,2 -58,1 -60,1 -64,1 h -66 -68 l -70,1 h -71 l -72,-1 h -72 -71 l -71,-1 h -69 l -68,-1 -66,-1 h -63 l -60,-1 -57,-1 h -52 l -49,-1 -43,-1 h -38 l -32,-1 h -25 -19 l -12,-1 h -4 l 1,-40 h 4 11 l 19,1 h 26 l 32,1 h 38 l 43,1 h 48 l 53,1 56,1 60,1 h 63 l 66,1 h 68 l 70,1 h 70 l 72,1 h 71 72 71 69 69 l 66,-1 h 63 l 61,-1 57,-1 53,-2 49,-2 44,-1 38,-3 33,-2 z m 1873,-886 25,32 -54,42 -53,41 -54,41 -53,40 -52,39 -53,39 -53,37 -53,37 -53,36 -53,35 -54,34 -53,34 -55,32 -54,31 -56,31 -56,29 -56,28 -58,28 -58,26 -59,25 -60,24 -61,23 -62,22 -63,21 -65,19 -66,18 -67,17 -69,16 -70,14 -72,13 -73,12 -75,10 -5,-40 74,-10 72,-12 71,-13 70,-14 68,-15 66,-17 65,-18 64,-19 62,-20 61,-22 61,-22 59,-24 58,-25 58,-26 56,-27 56,-28 55,-29 55,-30 54,-31 54,-32 53,-33 53,-34 53,-34 52,-36 53,-37 52,-37 53,-38 52,-39 53,-40 53,-41 54,-41 z m -418,-95 24,32 v 0 l -26,19 -30,19 -35,21 -39,21 -43,23 -47,23 -49,23 -52,25 -55,24 -56,25 -58,25 -59,25 -60,25 -60,25 -61,25 -60,24 -59,23 -59,23 -57,23 -55,21 -52,20 -51,19 -47,18 -44,16 -40,15 -36,14 -32,12 -26,9 -22,8 -15,6 -10,3 -3,2 -14,-38 3,-1 10,-4 16,-6 21,-7 27,-10 31,-12 36,-13 40,-15 44,-17 47,-18 50,-19 53,-20 55,-21 57,-22 58,-23 59,-24 60,-24 60,-24 60,-25 60,-25 59,-25 58,-25 56,-25 54,-24 52,-24 49,-23 45,-23 43,-22 38,-21 34,-20 29,-18 z m 168,-76 -25,-31 v 0 l 1,-1 1,-1 2,-1 1,-1 2,-2 2,-1 2,-2 1,-1 2,-1 1,-2 h 1 v 0 l -5,9 28,22 h 2 l -1,1 -2,1 -3,2 -4,3 -5,4 -7,4 -7,6 -8,6 -10,8 -12,9 -12,9 -15,11 -15,12 -18,14 -19,15 -22,16 -24,-32 21,-16 19,-15 18,-13 16,-13 14,-11 13,-9 11,-9 10,-8 9,-6 7,-6 6,-4 6,-4 4,-3 3,-3 3,-2 2,-1 3,-2 28,23 -5,10 -2,1 -1,2 -2,1 -2,2 -2,1 -2,2 -2,2 -1,1 -2,1 -2,2 -1,1 v 0 z m -2233,914 12,38 v 0 l -42,13 -42,12 -41,11 -41,11 -41,10 -40,9 -41,9 -40,8 -39,8 -40,7 -39,6 -40,6 -39,6 -39,5 -39,4 -40,4 -39,4 -39,4 -39,3 -40,2 -40,3 -39,2 -40,1 -41,2 -40,1 -41,1 -41,1 -41,1 h -42 l -43,1 h -42 l -43,1 -1,-41 h 43 43 l 42,-1 h 42 l 41,-1 41,-1 41,-1 40,-1 40,-2 40,-2 39,-2 40,-2 39,-3 39,-3 39,-3 38,-4 39,-4 39,-4 39,-5 38,-6 39,-5 39,-7 39,-7 40,-7 39,-8 40,-9 40,-9 40,-10 40,-10 41,-12 41,-12 z m 1648,-1098 36,18 -34,64 -35,60 -38,59 -39,55 -41,54 -42,51 -44,49 -45,46 -47,45 -48,42 -49,41 -50,39 -52,37 -52,35 -54,34 -54,32 -56,31 -56,29 -57,29 -57,26 -59,26 -58,25 -60,24 -59,23 -60,22 -61,22 -60,21 -61,20 -61,20 -61,19 -61,19 -61,19 -12,-38 61,-19 61,-19 61,-20 60,-19 61,-21 60,-20 60,-22 59,-22 60,-22 58,-24 58,-25 58,-25 57,-27 56,-28 55,-28 55,-31 53,-31 53,-34 51,-34 51,-36 49,-38 48,-40 47,-42 46,-43 44,-46 43,-47 41,-50 40,-52 38,-55 36,-57 35,-59 z m -1605,701 12,38 -19,-35 2,-1 5,-4 7,-6 11,-9 13,-11 16,-13 18,-15 20,-17 22,-19 24,-21 26,-21 26,-24 28,-24 29,-26 30,-27 31,-27 31,-29 31,-29 31,-29 32,-30 31,-31 31,-30 30,-30 29,-31 28,-30 27,-29 26,-29 25,-29 22,-28 21,-27 19,-26 16,-24 34,21 -17,26 -20,27 -21,28 -23,29 -25,29 -27,30 -27,30 -29,30 -30,31 -30,31 -31,30 -31,31 -32,30 -32,30 -31,29 -31,28 -31,28 -30,27 -29,26 -28,25 -27,23 -26,22 -24,20 -22,19 -20,17 -18,16 -16,13 -13,11 -11,9 -8,6 -5,4 -2,2 z m 12,38 -102,33 83,-68 z m 961,-502 23,33 v 0 l -38,26 -39,25 -40,25 -41,25 -41,24 -41,23 -42,22 -42,22 -41,21 -42,21 -41,19 -40,19 -40,18 -39,18 -39,16 -37,16 -36,15 -35,14 -33,14 -32,12 -30,11 -28,11 -26,10 -24,8 -21,8 -19,7 -17,6 -14,5 -11,3 -8,3 -5,2 h -2 l -12,-38 1,-1 5,-1 8,-3 11,-4 14,-4 16,-6 19,-7 22,-7 23,-9 26,-10 28,-10 30,-12 31,-12 33,-13 35,-14 35,-15 37,-16 38,-16 39,-17 40,-18 40,-19 41,-20 41,-20 41,-21 41,-21 41,-22 41,-23 41,-24 40,-24 39,-24 39,-26 z m 297,-182 -18,-35 v -1 h 1 l 2,-1 2,-1 2,-1 3,-1 3,-1 3,-2 h 4 l 5,-1 10,2 12,15 -2,13 -3,5 -3,4 -4,4 -5,5 -5,5 -8,6 -8,7 -10,8 -12,10 -14,10 -16,12 -18,14 -20,14 -23,17 -25,18 -27,19 -30,22 -33,23 -37,26 -23,-33 36,-26 33,-23 30,-21 28,-20 25,-18 22,-16 20,-15 18,-13 15,-12 14,-10 12,-9 9,-8 9,-7 6,-5 5,-5 4,-3 2,-2 v -1 l -1,2 -1,11 11,13 8,2 h 2 v 0 h -1 l -2,1 -1,1 -2,1 h -2 l -1,1 z m -2388,1160 10,39 v 0 l -19,4 -19,5 -19,4 -19,4 -19,3 -19,4 -19,3 -19,3 -19,2 -18,2 -18,3 -17,2 -18,1 -16,2 -17,1 -15,2 -16,1 -14,1 h -14 l -13,1 -12,1 h -12 l -11,1 h -9 -9 -8 -7 l -5,1 h -5 -3 -2 -1 v -41 h 1 2 3 4 6 6 8 8 l 10,-1 h 10 l 12,-1 h 12 l 13,-1 13,-1 15,-1 15,-1 15,-1 16,-1 16,-2 17,-1 18,-2 17,-2 18,-3 18,-2 19,-3 18,-3 18,-3 19,-4 19,-3 18,-4 18,-5 z m 1114,-513 19,36 -47,26 -46,25 -45,25 -45,23 -43,24 -43,22 -41,22 -41,21 -39,21 -39,20 -39,19 -37,19 -36,18 -36,17 -35,17 -35,16 -34,16 -33,15 -32,14 -32,14 -31,13 -31,13 -30,12 -30,12 -29,10 -29,11 -29,10 -28,9 -27,9 -28,8 -27,7 -26,8 -10,-39 26,-7 26,-8 27,-8 27,-8 27,-9 28,-10 29,-10 29,-11 29,-11 30,-12 30,-13 31,-13 32,-14 32,-14 33,-15 33,-15 34,-16 35,-17 36,-17 36,-18 37,-19 38,-19 39,-20 40,-20 40,-21 42,-22 42,-23 43,-23 44,-24 46,-24 46,-26 z m -906,312 21,35 v 0 l -32,19 -32,18 -32,18 -31,17 -31,15 -30,15 -29,14 -30,13 -28,12 -28,12 -27,11 -26,10 -25,9 -25,9 -24,8 -22,7 -22,7 -21,6 -19,5 -18,5 -18,5 -16,4 -14,3 -14,3 -12,3 -10,2 -9,2 -8,1 -6,1 -4,1 h -3 -1 l -6,-39 1,-1 h 3 l 4,-1 5,-1 7,-1 9,-2 10,-2 12,-2 13,-3 14,-3 15,-4 17,-5 18,-5 19,-5 20,-6 22,-6 22,-8 23,-7 24,-9 25,-9 26,-10 26,-10 27,-12 28,-12 29,-13 29,-13 29,-15 31,-15 30,-16 31,-18 31,-18 z m 1019,-1052 35,20 -6,9 -8,12 -12,15 -15,19 -17,22 -21,26 -23,28 -25,31 -28,33 -30,36 -32,37 -33,39 -35,40 -37,42 -38,43 -39,43 -40,44 -40,44 -42,43 -41,44 -42,43 -42,43 -42,41 -41,40 -42,39 -40,37 -40,35 -39,33 -38,31 -36,28 -35,25 -34,22 -21,-35 32,-21 34,-24 36,-27 37,-30 38,-32 39,-35 40,-36 41,-39 41,-40 41,-41 42,-42 42,-43 41,-43 41,-44 41,-44 39,-43 39,-43 38,-43 36,-41 35,-40 34,-39 31,-37 30,-36 28,-33 25,-31 23,-28 20,-25 18,-22 14,-18 12,-15 7,-11 z m -1462,-26 39,-7 13,77 11,75 7,73 5,72 3,69 v 67 l -2,65 -4,63 -5,61 -7,59 -9,56 -9,55 -11,51 -12,50 -13,47 -13,45 -14,42 -14,40 -14,38 -14,35 -14,32 -14,30 -13,27 -13,24 -11,22 -11,19 -9,16 -8,13 -7,11 -5,7 -3,5 -2,2 -32,-24 1,-1 2,-4 5,-7 6,-10 8,-13 9,-15 10,-19 12,-21 12,-23 12,-26 14,-29 13,-32 14,-34 14,-36 14,-39 13,-42 13,-44 13,-46 11,-48 11,-51 10,-53 8,-56 7,-57 5,-60 4,-62 2,-63 -1,-66 -2,-68 -5,-70 -7,-72 -10,-74 z m 971,9 37,16 -41,93 -42,90 -44,85 -45,81 -47,78 -47,73 -49,70 -49,67 -49,62 -50,59 -49,56 -49,52 -49,49 -48,46 -48,43 -46,39 -45,37 -44,34 -42,30 -40,29 -39,25 -36,23 -33,20 -31,18 -28,15 -25,14 -22,11 -18,8 -15,7 -10,5 -7,3 -3,1 -14,-38 h 1 l 7,-3 10,-5 14,-6 18,-9 21,-10 24,-13 27,-15 30,-18 33,-19 35,-23 38,-25 39,-27 42,-31 43,-33 44,-36 46,-39 46,-42 48,-45 48,-48 48,-51 49,-55 49,-58 48,-62 48,-65 48,-69 47,-73 46,-76 45,-80 43,-84 42,-88 z m -414,19 39,9 -26,100 -27,95 -28,90 -29,85 -29,81 -31,76 -31,71 -32,67 -31,64 -32,59 -32,55 -32,51 -32,48 -31,44 -31,41 -30,37 -30,34 -28,32 -28,28 -26,25 -25,23 -24,20 -22,17 -20,16 -18,13 -17,10 -14,9 -13,7 -9,6 -8,3 -4,3 -2,1 -16,-38 h 1 l 4,-2 6,-3 9,-5 11,-6 13,-8 16,-11 17,-12 20,-15 21,-16 22,-20 25,-21 25,-25 27,-27 27,-30 29,-34 29,-36 30,-40 31,-43 31,-47 31,-50 32,-54 31,-58 31,-62 31,-66 31,-71 30,-75 29,-79 29,-84 28,-89 26,-94 z"
     id="path13"
     style="fill:#000000;stroke:#000000" /><path
     class="fil0 str0"
     d="M4707 7528l455 -32c198,-34 2767,-43 2945,-96 176,-52 331,-132 462,-237 133,-107 237,-249 316,-426 78,-176 118,-408 118,-692 0,-211 -34,-395 -100,-548 -65,-153 -157,-278 -274,-377 -116,-100 -258,-172 -427,-219 -168,-49 -2736,-107 -2936,-107 -106,0 -196,4 -273,10 -76,5 -172,13 -286,24 6,1799 12,3598 17,5398 -133,116 -287,119 -461,7 1,-1991 2,-4143 3,-6134 145,-126 294,-99 444,-2l-1 172 70 62c87,74 232,87 346,85 134,-3 267,-5 399,-5 326,0 2789,37 3030,110 242,73 344,138 502,272 156,133 228,333 301,525 77,203 114,486 114,649 0,252 10,515 -81,734 -91,221 -177,472 -368,632 -192,161 -301,267 -595,359 -293,92 -3053,103 -3124,102 -308,21 -378,64 -453,95 -75,31 -83,118 -143,169l0 -530z"
     id="path17"
     style="fill:#000000;stroke:none" /><path
     class="fil2 str1"
     d="M3149 2450l484 0c263,547 -88,4667 -88,5503l0 220c0,223 530,309 793,309l617 9 1232 -142 0 88c-260,6 -1005,270 -1322,352 -175,45 -1325,240 -1364,265l-924 0 -484 -49c-54,-75 -89,-73 -89,-171l0 -529 791 100 90 -12c161,0 352,-121 352,-264l0 -748c0,-737 -359,-4366 -88,-4931zm267 2564l-2 -13c-3,-12 -6,-23 -10,-34 -4,-10 -10,-19 -18,-27 -8,-8 -19,-14 -32,-18 -13,-5 -29,-7 -50,-7 -15,0 -28,2 -39,6 -11,4 -20,9 -27,16 -7,6 -12,15 -15,24 -4,10 -5,20 -5,32 0,12 1,24 2,36l404 0 0 92 -447 0c0,-10 -1,-20 -1,-32 -1,-11 -1,-23 -2,-35 0,-12 -1,-24 -1,-36 0,-12 0,-24 0,-35 0,-28 3,-52 8,-72 7,-20 15,-37 26,-51 11,-13 24,-23 40,-29 16,-7 34,-10 54,-10 20,0 40,4 58,11 18,7 34,18 48,32 13,15 24,34 32,57 8,24 12,51 12,83l0 4 -35 6zm208 -360l0 92 -449 0 0 -92 449 0zm2 -473l-314 317 0 1c26,0 50,-1 72,-1 10,-1 19,-1 29,-1 9,0 18,-1 26,-1 8,0 15,0 21,0 6,0 10,0 13,0l151 0 0 53 -452 0 0 -40 314 -317 0 0c-24,0 -47,1 -68,1 -9,0 -18,0 -27,0 -10,0 -18,0 -27,0 -8,1 -16,1 -23,1 -7,0 -12,0 -17,0l-149 0 0 -54 451 0 0 41zm-187 -404l0 30 185 0 0 92 -448 0c0,-9 -1,-19 -2,-30 0,-10 -1,-21 -1,-32 -1,-12 -1,-23 -1,-35 -1,-11 -1,-22 -1,-33 0,-54 10,-95 30,-123 20,-28 51,-42 93,-42 19,0 35,2 49,7 14,5 26,11 37,19 10,8 19,17 26,27 7,10 13,21 18,32 23,-13 45,-26 65,-38 21,-12 38,-25 54,-37 15,-12 27,-24 36,-36 9,-13 14,-26 14,-41l0 -3 28 0c2,8 4,16 6,25 1,10 2,20 2,32 0,11 -1,21 -2,30 -1,9 -3,18 -7,26 -3,8 -8,16 -14,24 -7,8 -15,16 -26,24 -10,8 -23,17 -38,26 -16,9 -34,20 -56,31l-47 25zm-44 15c0,-13 -2,-26 -5,-37 -3,-12 -7,-22 -11,-28 -3,-4 -6,-7 -9,-11 -3,-3 -8,-7 -14,-9 -6,-3 -14,-5 -22,-7 -10,-1 -21,-2 -35,-2 -15,0 -28,2 -38,5 -11,4 -19,9 -26,17 -6,7 -10,16 -13,26 -3,10 -4,23 -4,37 0,3 0,7 0,12 0,4 1,9 1,12l176 0 0 -15zm229 -586l-151 52 2 169 149 55 0 58 -445 -178 -15 -89 460 -165 0 98zm-194 67l-193 67 193 72 0 -139zm63 -490c16,0 32,5 49,13 16,8 31,20 44,35 13,16 24,34 32,56 8,21 12,46 12,73 0,14 0,28 -2,40 -1,12 -4,23 -7,34 -2,11 -6,21 -10,31 -4,10 -8,20 -13,30l-67 -22c5,-7 9,-16 14,-26 5,-11 9,-23 13,-35 4,-13 8,-26 11,-38 2,-13 4,-25 4,-35 0,-25 -3,-43 -8,-55 -3,-7 -10,-13 -20,-17 -10,-4 -24,-6 -40,-6 -12,0 -22,3 -29,9 -8,7 -15,15 -21,25 -5,10 -11,22 -15,35 -5,13 -10,27 -15,40 -6,14 -12,27 -19,40 -6,14 -15,25 -25,35 -10,11 -22,19 -36,25 -14,6 -32,10 -52,10 -13,0 -27,-4 -41,-11 -15,-7 -28,-18 -40,-31 -12,-14 -22,-31 -30,-51 -8,-20 -12,-43 -12,-69 0,-20 1,-40 3,-59 2,-19 5,-37 8,-55l66 14c-2,8 -5,18 -8,28 -2,11 -5,21 -7,32 -1,11 -3,21 -4,32 -1,10 -2,19 -2,27 0,8 1,17 2,26 1,9 3,17 6,23 3,6 9,10 17,13 8,2 17,4 28,4 12,0 21,-4 29,-10 7,-6 14,-14 19,-25 6,-10 11,-22 16,-35 4,-13 9,-26 15,-40 5,-14 11,-27 18,-40 7,-14 16,-25 26,-36 10,-10 23,-18 38,-24 14,-7 32,-10 53,-10z"
     id="path19"
     style="fill:#000000;stroke:none" /></g>&#10;  &#10; </g>&#10;</svg>
